<?xml version="1.0" encoding="UTF-8"?>
<svg version="1.1" viewBox="0 0 1583 2048" width="150" height="194" xmlns="http://www.w3.org/2000/svg">
<path transform="translate(0)" d="m0 0h1583v2048h-1583z" fill="#FEFEFE"/>
<path transform="translate(366,397)" d="m0 0h84l57 1 2 1 1 197h216l140 1 1 1 1 18v131h-208l-116 1h-32l5 18 8 29 13 38 14 34 15 33 13 25 16 27 18 27 10 14 10 13 8 10 9 11 12 14 11 12 9 11 7 7 7 8 11 11 7 8 15 15 8 7 12 12 2 6-5 16-11 30-8 20-10 27-13 35-6 18-4-2-11-11-7-8-10-10-7-8-11-11-7-8-15-16-9-11-9-10-9-11-13-16-11-14-13-17-13-18-11-16-13-20-15-24-15-26-17-33-16-35-3-5v-2h-2l-2 9-8 24-8 20-11 25-18 36-13 23-13 21-8 12-11 16-9 12-10 13-18 22-12 14-16 17-30 30-8 7-15 14-11 9-10 9-9 7-16 13-18 13-13 9-17 12-23 15-26 16-28 17-23 12h-4l-7-19-15-45-13-41-9-24-6-11v-662h358l1-199z" fill="#7A7A7A"/>
<path transform="translate(1212,645)" d="m0 0h12l5 10 20 59 19 53 20 56 16 45 19 53 17 48 21 59 19 53 22 63 16 44 18 51 15 42 21 59 17 48 44 124 20 56 21 57 6 15 3 4v9h-146l-7-2-4-9-30-86-12-36-12-35-12-36-21-62-10-29-3-6h-406l-9 21-14 40-17 50-15 43-16 48-14 41-13 40-7 17-2 1h-116l-33-1 3-11 17-49 16-45 17-48 19-53 19-54 10-28 17-48 16-45 40-112 17-48 16-45 19-53 40-112 17-48 16-45 19-53 17-48 15-43 6-16 2-2z" fill="#7A7A7A"/>
<path transform="translate(0,748)" d="m0 0h134l204 1 21 1 1 1-1 27-3 23-6 28-9 33-13 40-14 37-12 28-9 19-12 22-12 20-12 18-10 13-7 9-10 13-13 15-31 31-8 7-10 9-14 11-20 15-18 13-20 13-28 17-22 13-29 16-15 7h-2z" fill="#FEFEFE"/>
<path transform="translate(1122,803)" d="m0 0 4 4 10 25 16 43 14 36 16 41 18 47 23 61 16 42 22 57 15 38-1 2-48 1h-206l-50-1 1-6 15-40 31-82 18-47 22-58 17-44 14-36 21-55 10-26z" fill="#FEFEFE"/>
</svg>
